<?xml version="1.0" encoding="utf-8"?>
<!-- Generator: Adobe Illustrator 21.0.2, SVG Export Plug-In . SVG Version: 6.00 Build 0)  -->
<svg version="1.1" id="Layer_1" xmlns="http://www.w3.org/2000/svg" xmlns:xlink="http://www.w3.org/1999/xlink" x="0px" y="0px"
	 width="2272px" height="1872px" viewBox="0 0 2272 1872" enable-background="new 0 0 2272 1872" xml:space="preserve">
<g>
	<g>
		<path fill="#FCDD92" d="M173.5,442.4c-8-0.4-12.7,6.9-9.8,13.9c1.1,2.6,4.2,10.5,6.4,12c3.7,2.5,11.3-2.4,15.4-2.6
			c8.8-0.4,18.9,7.3,24-5.3c2.3-5.6-1.5-8.2-5.5-11.6c-3.6-3.1-9.9-8.9-14.7-9.7C182.5,438,179.7,446.8,173.5,442.4z"/>
		<path fill="#77361A" d="M188.9,449.5c-3.2-0.2-6.9,1.4-9.1,3.7c-1.8,1.8-2.4,3.6-0.1,5c1.7,1,3.1,0.8,5,0.9
			c2.7,0.1,5.2,0.8,7.9-0.2c2.1-0.8,6.8-1.8,4.9-5c-1.6-2.6-4.1-2.4-6.5-3.4C190.4,450.2,189.7,449.6,188.9,449.5z"/>
	</g>
	<g>
		<path fill="#FCDD92" d="M218,424c-2.8-7.5-11.3-8.9-16.6-3.5c-2,2-8,8-8.5,10.6c-0.8,4.3,6.7,9.4,8.5,13.1
			c3.8,8,0.8,20.3,14.3,19.9c6.1-0.2,6.9-4.6,8.5-9.6c1.4-4.5,4.3-12.6,3.1-17.3C225.6,430.4,216.4,431.4,218,424z"/>
	</g>
	<g>
		<path fill="#FCDD92" d="M228.6,440c-8-0.4-12.7,6.9-9.8,13.9c1.1,2.6,4.2,10.5,6.4,12c3.7,2.5,11.3-2.4,15.4-2.6
			c8.8-0.4,18.9,7.3,24-5.3c2.3-5.6-1.5-8.2-5.5-11.6c-3.6-3.1-9.9-8.9-14.7-9.7C237.5,435.6,234.8,444.4,228.6,440z"/>
		<path fill="#77361A" d="M244,447.1c-3.2-0.2-6.9,1.4-9.1,3.7c-1.8,1.8-2.4,3.6-0.1,5c1.7,1,3.1,0.8,5,0.9c2.7,0.1,5.2,0.8,7.9-0.2
			c2.1-0.8,6.8-1.8,4.9-5c-1.6-2.6-4.1-2.4-6.5-3.4C245.4,447.7,244.8,447.2,244,447.1z"/>
	</g>
	<g>
		<path fill="#FCDD92" d="M234.8,407c-8-0.4-12.7,6.9-9.8,13.9c1.1,2.6,4.2,10.5,6.4,12c3.7,2.5,11.3-2.4,15.4-2.6
			c8.8-0.4,18.9,7.3,24-5.3c2.3-5.6-1.5-8.2-5.5-11.6c-3.6-3.1-9.9-8.9-14.7-9.7C243.8,402.6,241.1,411.4,234.8,407z"/>
		<path fill="#77361A" d="M250.3,414.1c-3.2-0.2-6.9,1.4-9.1,3.7c-1.8,1.8-2.4,3.6-0.1,5c1.7,1,3.1,0.8,5,0.9
			c2.7,0.1,5.2,0.8,7.9-0.2c2.1-0.8,6.8-1.8,4.9-5c-1.6-2.6-4.1-2.4-6.5-3.4C251.7,414.7,251.1,414.2,250.3,414.1z"/>
	</g>
	<g>
		<path fill="#FCDD92" d="M269.6,437.9c-8-0.4-12.7,6.9-9.8,13.9c1.1,2.6,4.2,10.5,6.4,12c3.7,2.5,11.3-2.4,15.4-2.6
			c8.8-0.4,18.9,7.3,24-5.3c2.3-5.6-1.5-8.2-5.5-11.6c-3.6-3.1-9.9-8.9-14.7-9.7C278.6,433.5,275.8,442.3,269.6,437.9z"/>
		<path fill="#77361A" d="M285,445c-3.2-0.2-6.9,1.4-9.1,3.7c-1.8,1.8-2.4,3.6-0.1,5c1.7,1,3.1,0.8,5,0.9c2.7,0.1,5.2,0.8,7.9-0.2
			c2.1-0.8,6.8-1.8,4.9-5c-1.6-2.6-4.1-2.4-6.5-3.4C286.5,445.7,285.8,445.1,285,445z"/>
	</g>
	<g>
		<path fill="#FCDD92" d="M272,424.7c-2.3-6.1-9.2-7.2-13.5-2.9c-1.6,1.6-6.5,6.5-6.9,8.6c-0.7,3.5,5.5,7.7,6.9,10.7
			c3.1,6.5,0.6,16.5,11.6,16.2c4.9-0.1,5.6-3.7,6.9-7.8c1.2-3.7,3.5-10.2,2.5-14.1C278.2,429.9,270.7,430.7,272,424.7z"/>
		<path fill="#77361A" d="M271.7,438.5c-0.9-2.5-3.3-4.7-5.7-5.6c-1.9-0.7-3.5-0.6-3.7,1.5c-0.2,1.6,0.4,2.6,0.9,4
			c0.8,2.1,1.1,4.2,2.7,5.8c1.3,1.3,3.5,4.5,5.3,2.1c1.4-2,0.4-3.9,0.5-5.9C271.6,439.8,271.9,439.1,271.7,438.5z"/>
	</g>
	<g>
		<path fill="#FCDD92" d="M301.9,411.9c-2.8-7.5-11.3-8.9-16.6-3.5c-2,2-8,8-8.5,10.6c-0.8,4.3,6.7,9.4,8.5,13.1
			c3.8,8,0.8,20.3,14.3,19.9c6.1-0.2,6.9-4.6,8.5-9.6c1.4-4.5,4.3-12.6,3.1-17.3C309.5,418.3,300.4,419.3,301.9,411.9z"/>
	</g>
	<g>
		<path fill="#FCDD92" d="M300.4,440.7c-8-0.4-12.7,6.9-9.8,13.9c1.1,2.6,4.2,10.5,6.4,12c3.7,2.5,11.3-2.4,15.4-2.6
			c8.8-0.4,18.9,7.3,24-5.3c2.3-5.6-1.5-8.2-5.5-11.6c-3.6-3.1-9.9-8.9-14.7-9.7C309.4,436.2,306.7,445,300.4,440.7z"/>
		<path fill="#77361A" d="M312.2,445c-2.9-0.2-6.2,1.3-8.2,3.3c-1.6,1.6-2.2,3.3-0.1,4.5c1.5,0.9,2.8,0.7,4.5,0.8
			c2.4,0.1,4.7,0.7,7.1-0.2c1.9-0.7,6.2-1.6,4.4-4.5c-1.4-2.3-3.7-2.1-5.8-3.1C313.5,445.6,312.9,445,312.2,445z"/>
	</g>
	<g>
		<path fill="#FCDD92" d="M344.9,422.2c-2.8-7.5-11.3-8.9-16.6-3.5c-2,2-8,8-8.5,10.6c-0.8,4.3,6.7,9.4,8.5,13.1
			c3.8,8,0.8,20.3,14.3,19.9c6.1-0.2,6.9-4.6,8.5-9.6c1.4-4.5,4.3-12.6,3.1-17.3C352.5,428.7,343.3,429.7,344.9,422.2z"/>
		<path fill="#77361A" d="M344.5,439.2c-1.1-3-4-5.7-7-6.9c-2.3-0.9-4.3-0.8-4.6,1.9c-0.2,1.9,0.5,3.2,1.1,5
			c0.9,2.5,1.4,5.1,3.3,7.1c1.6,1.6,4.4,5.6,6.5,2.6c1.7-2.4,0.5-4.7,0.6-7.3C344.5,440.8,344.7,439.9,344.5,439.2z"/>
	</g>
	<g>
		<path fill="#FCDD92" d="M355.5,438.2c-8-0.4-12.7,6.9-9.8,13.9c1.1,2.6,4.2,10.5,6.4,12c3.7,2.5,11.3-2.4,15.4-2.6
			c8.9-0.4,18.9,7.3,24-5.3c2.3-5.6-1.5-8.2-5.5-11.6c-3.6-3.1-9.9-8.9-14.7-9.7C364.4,433.8,361.7,442.6,355.5,438.2z"/>
	</g>
	<g>
		<path fill="#FCDD92" d="M361.8,405.2c-8-0.4-12.7,6.9-9.8,13.9c1.1,2.6,4.2,10.5,6.4,12c3.7,2.5,11.3-2.4,15.4-2.6
			c8.8-0.4,18.9,7.3,24-5.3c2.3-5.6-1.5-8.2-5.5-11.6c-3.6-3.1-9.9-8.9-14.7-9.7C370.7,400.8,368,409.6,361.8,405.2z"/>
		<path fill="#77361A" d="M377.2,412.3c-3.2-0.2-6.9,1.4-9.1,3.7c-1.8,1.8-2.4,3.6-0.1,5c1.7,1,3.1,0.8,5,0.9
			c2.7,0.1,5.2,0.8,7.9-0.2c2.1-0.8,6.8-1.8,4.9-5c-1.6-2.6-4.1-2.4-6.5-3.4C378.7,413,378,412.4,377.2,412.3z"/>
	</g>
	<g>
		<path fill="#FCDD92" d="M396.5,436.2c-8-0.4-12.7,6.9-9.8,13.9c1.1,2.6,4.2,10.5,6.4,12c3.7,2.5,11.3-2.4,15.4-2.6
			c8.8-0.4,18.9,7.3,24-5.3c2.3-5.6-1.5-8.2-5.5-11.6c-3.6-3.1-9.9-8.9-14.7-9.7C405.5,431.7,402.8,440.5,396.5,436.2z"/>
		<path fill="#77361A" d="M412,443.2c-3.2-0.2-6.9,1.4-9.1,3.7c-1.8,1.8-2.4,3.6-0.1,5c1.7,1,3.1,0.8,5,0.9c2.7,0.1,5.2,0.8,7.9-0.2
			c2.1-0.8,6.8-1.8,4.9-5c-1.6-2.6-4.1-2.4-6.5-3.4C413.4,443.9,412.8,443.3,412,443.2z"/>
	</g>
	<g>
		<path fill="#FCDD92" d="M399.9,419.8c-2.8-7.5-11.3-8.9-16.6-3.5c-2,2-8,8-8.5,10.6c-0.8,4.3,6.7,9.4,8.5,13.1
			c3.8,8,0.8,20.3,14.3,19.9c6.1-0.2,6.9-4.6,8.5-9.6c1.4-4.5,4.3-12.6,3.1-17.3C407.6,426.2,398.4,427.2,399.9,419.8z"/>
	</g>
	<g>
		<path fill="#FCDD92" d="M416.1,411.6c-2.5-6.6-10-7.8-14.6-3.1c-1.7,1.8-7,7.1-7.4,9.4c-0.7,3.8,5.9,8.3,7.5,11.6
			c3.4,7,0.7,17.8,12.6,17.5c5.3-0.1,6.1-4,7.5-8.5c1.3-4,3.7-11.1,2.7-15.2C422.8,417.3,414.8,418.2,416.1,411.6z"/>
		<path fill="#77361A" d="M415.8,426.6c-0.9-2.7-3.5-5-6.1-6.1c-2.1-0.8-3.8-0.7-4,1.7c-0.2,1.7,0.4,2.8,1,4.4
			c0.8,2.2,1.2,4.5,2.9,6.3c1.4,1.4,3.8,4.9,5.7,2.2c1.5-2.2,0.5-4.2,0.5-6.4C415.8,427.9,416,427.2,415.8,426.6z"/>
	</g>
	<g>
		<path fill="#FCDD92" d="M243.7,383c-8-0.4-12.7,6.9-9.8,13.9c1.1,2.6,4.2,10.5,6.4,12c3.7,2.5,11.3-2.4,15.4-2.6
			c8.8-0.4,18.9,7.3,24-5.3c2.3-5.6-1.5-8.2-5.5-11.6c-3.6-3.1-9.9-8.9-14.7-9.7C252.7,378.5,250,387.3,243.7,383z"/>
		<path fill="#77361A" d="M259.2,390c-3.2-0.2-6.9,1.4-9.1,3.7c-1.8,1.8-2.4,3.6-0.1,5c1.7,1,3.1,0.8,5,0.9c2.7,0.1,5.2,0.8,7.9-0.2
			c2.1-0.8,6.8-1.8,4.9-5c-1.6-2.6-4.1-2.4-6.5-3.4C260.6,390.7,260,390.1,259.2,390z"/>
	</g>
	<g>
		<path fill="#FCDD92" d="M281.9,397.5c-2.8-7.5-11.3-8.9-16.6-3.5c-2,2-8,8-8.5,10.6c-0.8,4.3,6.7,9.4,8.5,13.1
			c3.8,8,0.8,20.3,14.3,19.9c6.1-0.2,6.9-4.6,8.5-9.6c1.4-4.5,4.3-12.6,3.1-17.3C289.5,404,280.4,405,281.9,397.5z"/>
	</g>
	<g>
		<path fill="#FCDD92" d="M310.8,387.8c-2.8-7.5-11.3-8.9-16.6-3.5c-2,2-8,8-8.5,10.6c-0.8,4.3,6.7,9.4,8.5,13.1
			c3.8,8,0.8,20.3,14.3,19.9c6.1-0.2,6.9-4.6,8.5-9.6c1.4-4.5,4.3-12.6,3.1-17.3C318.4,394.3,309.3,395.3,310.8,387.8z"/>
		<path fill="#77361A" d="M310.4,404.8c-1.1-3-4-5.7-7-6.9c-2.3-0.9-4.3-0.8-4.6,1.9c-0.2,1.9,0.5,3.2,1.1,5
			c0.9,2.5,1.4,5.1,3.3,7.1c1.6,1.6,4.4,5.6,6.5,2.6c1.7-2.4,0.5-4.7,0.6-7.3C310.4,406.4,310.6,405.5,310.4,404.8z"/>
	</g>
	<g>
		<path fill="#FCDD92" d="M283.6,389.8c-8-0.4-12.7,6.9-9.8,13.9c1.1,2.6,4.2,10.5,6.4,12c3.7,2.5,11.3-2.4,15.4-2.6
			c8.8-0.4,18.9,7.3,24-5.3c2.3-5.6-1.5-8.2-5.5-11.6c-3.6-3.1-9.9-8.9-14.7-9.7C292.6,385.3,289.8,394.1,283.6,389.8z"/>
		<path fill="#77361A" d="M299.1,396.9c-3.2-0.2-6.9,1.4-9.1,3.7c-1.8,1.8-2.4,3.6-0.1,5c1.7,1,3.1,0.8,5,0.9
			c2.7,0.1,5.2,0.8,7.9-0.2c2.1-0.8,6.8-1.8,4.9-5c-1.6-2.6-4.1-2.4-6.5-3.4C300.5,397.5,299.8,396.9,299.1,396.9z"/>
	</g>
	<g>
		<path fill="#FCDD92" d="M318.4,420.7c-8-0.4-12.7,6.9-9.8,13.9c1.1,2.6,4.2,10.5,6.4,12c3.7,2.5,11.3-2.4,15.4-2.6
			c8.8-0.4,18.9,7.3,24-5.3c2.3-5.6-1.5-8.2-5.5-11.6c-3.6-3.1-9.9-8.9-14.7-9.7C327.3,416.2,324.6,425.1,318.4,420.7z"/>
		<path fill="#77361A" d="M333.8,427.8c-3.2-0.2-6.9,1.4-9.1,3.7c-1.8,1.8-2.4,3.6-0.1,5c1.7,1,3.1,0.8,5,0.9
			c2.7,0.1,5.2,0.8,7.9-0.2c2.1-0.8,6.8-1.8,4.9-5c-1.6-2.6-4.1-2.4-6.5-3.4C335.3,428.4,334.6,427.8,333.8,427.8z"/>
	</g>
	<g>
		<path fill="#FCDD92" d="M321.8,404.3c-2.8-7.5-11.3-8.9-16.6-3.5c-2,2-8,8-8.5,10.6c-0.8,4.3,6.7,9.4,8.5,13.1
			c3.8,8,0.8,20.3,14.3,19.9c6.1-0.2,6.9-4.6,8.5-9.6c1.4-4.5,4.3-12.6,3.1-17.3C329.4,410.8,320.2,411.8,321.8,404.3z"/>
		<path fill="#77361A" d="M321.4,421.3c-1.1-3-4-5.7-7-6.9c-2.3-0.9-4.3-0.8-4.6,1.9c-0.2,1.9,0.5,3.2,1.1,5
			c0.9,2.5,1.4,5.1,3.3,7.1c1.6,1.6,4.4,5.6,6.5,2.6c1.7-2.4,0.5-4.7,0.6-7.3C321.4,422.9,321.6,422.1,321.4,421.3z"/>
	</g>
	<g>
		<path fill="#FCDD92" d="M350.7,394.6c-2.8-7.5-11.3-8.9-16.6-3.5c-2,2-8,8-8.5,10.6c-0.8,4.3,6.7,9.4,8.5,13.1
			c3.8,8,0.8,20.3,14.3,19.9c6.1-0.2,6.9-4.6,8.5-9.6c1.4-4.5,4.3-12.6,3.1-17.3C358.3,401.1,349.1,402.1,350.7,394.6z"/>
		<path fill="#77361A" d="M350.3,411.6c-1.1-3-4-5.7-7-6.9c-2.3-0.9-4.3-0.8-4.6,1.9c-0.2,1.9,0.5,3.2,1.1,5
			c0.9,2.5,1.4,5.1,3.3,7.1c1.6,1.6,4.4,5.6,6.5,2.6c1.7-2.4,0.5-4.7,0.6-7.3C350.3,413.2,350.5,412.4,350.3,411.6z"/>
	</g>
	<g>
		<path fill="#FCDD92" d="M334.7,390.5c-2.8-7.5-11.3-8.9-16.6-3.5c-2,2-8,8-8.5,10.6c-0.8,4.3,6.7,9.4,8.5,13.1
			c3.8,8,0.8,20.3,14.3,19.9c6.1-0.2,6.9-4.6,8.5-9.6c1.4-4.5,4.3-12.6,3.1-17.3C342.3,397,333.2,398,334.7,390.5z"/>
	</g>
	<g>
		<path fill="#FCDD92" d="M350.6,376.1c-7.3-0.3-11.5,6.2-8.9,12.6c1,2.4,3.8,9.5,5.8,10.8c3.3,2.2,10.2-2.2,14-2.4
			c8-0.3,17.1,6.6,21.7-4.8c2-5.1-1.3-7.4-5-10.5c-3.3-2.8-9-8.1-13.3-8.8C358.7,372,356.2,380,350.6,376.1z"/>
	</g>
	<g>
		<path fill="#FCDD92" d="M300.6,356.1c-2.8-7.5-11.3-8.9-16.6-3.5c-2,2-8,8-8.5,10.6c-0.8,4.3,6.7,9.4,8.5,13.1
			c3.8,8,0.8,20.3,14.3,19.9c6.1-0.2,6.9-4.6,8.5-9.6c1.4-4.5,4.3-12.6,3.1-17.3C308.2,362.6,299.1,363.6,300.6,356.1z"/>
		<path fill="#77361A" d="M300.2,373.1c-1.1-3-4-5.7-7-6.9c-2.3-0.9-4.3-0.8-4.6,1.9c-0.2,1.9,0.5,3.2,1.1,5
			c0.9,2.5,1.4,5.1,3.3,7.1c1.6,1.6,4.4,5.6,6.5,2.6c1.7-2.4,0.5-4.7,0.6-7.3C300.2,374.7,300.5,373.9,300.2,373.1z"/>
	</g>
	<g>
		<path fill="#FCDD92" d="M273.4,358.1c-8-0.4-12.7,6.9-9.8,13.9c1.1,2.6,4.2,10.5,6.4,12c3.7,2.5,11.3-2.4,15.4-2.6
			c8.8-0.4,18.9,7.3,24-5.3c2.3-5.6-1.5-8.2-5.5-11.6c-3.6-3.1-9.9-8.9-14.7-9.7C282.4,353.6,279.7,362.5,273.4,358.1z"/>
		<path fill="#77361A" d="M288.9,365.2c-3.2-0.2-6.9,1.4-9.1,3.7c-1.8,1.8-2.4,3.6-0.1,5c1.7,1,3.1,0.8,5,0.9
			c2.7,0.1,5.2,0.8,7.9-0.2c2.1-0.8,6.8-1.8,4.9-5c-1.6-2.6-4.1-2.4-6.5-3.4C290.3,365.8,289.6,365.2,288.9,365.2z"/>
	</g>
	<g>
		<path fill="#FCDD92" d="M190.7,417.7c-2.8-7.5-11.3-8.9-16.6-3.5c-2,2-8,8-8.5,10.6c-0.8,4.3,6.7,9.4,8.5,13.1
			c3.8,8,0.8,20.3,14.3,19.9c6.1-0.2,6.9-4.6,8.5-9.6c1.4-4.5,4.3-12.6,3.1-17.3C198.3,424.2,189.1,425.2,190.7,417.7z"/>
		<path fill="#77361A" d="M198.7,433.2c-1-2.7-3.6-5.2-6.3-6.2c-2.1-0.8-3.9-0.7-4.1,1.7c-0.2,1.7,0.4,2.9,1,4.5
			c0.8,2.3,1.2,4.6,3,6.4c1.4,1.5,3.9,5,5.9,2.3c1.6-2.2,0.5-4.3,0.5-6.6C198.7,434.6,198.9,433.9,198.7,433.2z"/>
	</g>
	<g>
		<path fill="#FCDD92" d="M207.6,400.7c-8-0.4-12.7,6.9-9.8,13.9c1.1,2.6,4.2,10.5,6.4,12c3.7,2.5,11.3-2.4,15.4-2.6
			c8.8-0.4,18.9,7.3,24-5.3c2.3-5.6-1.5-8.2-5.5-11.6c-3.6-3.1-9.9-8.9-14.7-9.7C216.5,396.3,213.8,405.1,207.6,400.7z"/>
		<path fill="#77361A" d="M223,407.8c-3.2-0.2-6.9,1.4-9.1,3.7c-1.8,1.8-2.4,3.6-0.1,5c1.7,1,3.1,0.8,5,0.9c2.7,0.1,5.2,0.8,7.9-0.2
			c2.1-0.8,6.8-1.8,4.9-5c-1.6-2.6-4.1-2.4-6.5-3.4C224.5,408.5,223.8,407.9,223,407.8z"/>
	</g>
	<g>
		<path fill="#FCDD92" d="M245.7,415.3c-2.8-7.5-11.3-8.9-16.6-3.5c-2,2-8,8-8.5,10.6c-0.8,4.3,6.7,9.4,8.5,13.1
			c3.8,8,0.8,20.3,14.3,19.9c6.1-0.2,6.9-4.6,8.5-9.6c1.4-4.5,4.3-12.6,3.1-17.3C253.4,421.7,244.2,422.7,245.7,415.3z"/>
	</g>
	<g>
		<path fill="#FCDD92" d="M224.2,382.2c-6.3-0.3-10,5.4-7.8,11c0.8,2.1,3.3,8.3,5.1,9.5c2.9,2,8.9-1.9,12.2-2.1
			c7-0.3,15,5.8,18.9-4.2c1.8-4.4-1.1-6.5-4.3-9.2c-2.9-2.5-7.8-7-11.6-7.7C231.2,378.7,229.1,385.7,224.2,382.2z"/>
		<path fill="#77361A" d="M236.4,387.8c-2.5-0.2-5.4,1.1-7.2,2.9c-1.4,1.4-1.9,2.9,0,3.9c1.3,0.8,2.4,0.7,3.9,0.7
			c2.1,0.1,4.1,0.6,6.2-0.2c1.7-0.6,5.4-1.4,3.9-3.9c-1.2-2-3.3-1.9-5.1-2.7C237.5,388.3,237,387.9,236.4,387.8z"/>
	</g>
	<g>
		<path fill="#FCDD92" d="M254.6,391.2c-2.8-7.5-11.3-8.9-16.6-3.5c-2,2-8,8-8.5,10.6c-0.8,4.3,6.7,9.4,8.5,13.1
			c3.8,8,0.8,20.3,14.3,19.9c6.1-0.2,6.9-4.6,8.5-9.6c1.4-4.5,4.3-12.6,3.1-17.3C262.3,397.7,253.1,398.7,254.6,391.2z"/>
	</g>
	<g>
		<path fill="#FCDD92" d="M246.2,363.5c-8-0.4-12.7,6.9-9.8,13.9c1.1,2.6,4.2,10.5,6.4,12c3.7,2.5,11.3-2.4,15.4-2.6
			c8.9-0.4,18.9,7.3,24-5.3c2.3-5.6-1.5-8.2-5.5-11.6c-3.6-3.1-9.9-8.9-14.7-9.7C255.1,359.1,252.4,367.9,246.2,363.5z"/>
	</g>
	<g>
		<path fill="#FCDD92" d="M311.6,372.6c-2.8-7.5-11.3-8.9-16.6-3.5c-2,2-8,8-8.5,10.6c-0.8,4.3,6.7,9.4,8.5,13.1
			c3.8,8,0.8,20.3,14.3,19.9c6.1-0.2,6.9-4.6,8.5-9.6c1.4-4.5,4.3-12.6,3.1-17.3C319.2,379.1,310,380.1,311.6,372.6z"/>
		<path fill="#77361A" d="M307.9,392.5c-1-2.7-3.6-5.2-6.3-6.2c-2.1-0.8-3.9-0.7-4.1,1.7c-0.2,1.7,0.4,2.9,1,4.5
			c0.8,2.3,1.2,4.6,3,6.4c1.4,1.5,3.9,5,5.9,2.3c1.6-2.2,0.5-4.3,0.5-6.6C307.9,393.9,308.1,393.2,307.9,392.5z"/>
	</g>
	<g>
		<path fill="#FCDD92" d="M322.1,340.2c-2.8-7.5-11.3-8.9-16.6-3.5c-2,2-8,8-8.5,10.6c-0.8,4.3,6.7,9.4,8.5,13.1
			c3.8,8,0.8,20.3,14.3,19.9c6.1-0.2,6.9-4.6,8.5-9.6c1.4-4.5,4.3-12.6,3.1-17.3C329.7,346.7,320.5,347.7,322.1,340.2z"/>
		<path fill="#77361A" d="M321.7,357.2c-1.1-3-4-5.7-7-6.9c-2.3-0.9-4.3-0.8-4.6,1.9c-0.2,1.9,0.5,3.2,1.1,5
			c0.9,2.5,1.4,5.1,3.3,7.1c1.6,1.6,4.4,5.6,6.5,2.6c1.7-2.4,0.5-4.7,0.6-7.3C321.7,358.8,321.9,358,321.7,357.2z"/>
	</g>
	<g>
		<path fill="#FCDD92" d="M316.1,338.4c-1.5-7.9-9.7-10.7-15.8-6.3c-2.3,1.6-9.2,6.6-10.2,9c-1.6,4.1,5,10.4,6.1,14.4
			c2.4,8.5-2.7,20.1,10.7,22.1c6,0.9,7.6-3.3,10-8.1c2.2-4.2,6.3-11.7,6-16.6C322.5,346.1,313.3,345.5,316.1,338.4z"/>
		<path fill="#77361A" d="M312.8,355.1c-0.5-3.2-3-6.3-5.7-8c-2.2-1.3-4.1-1.5-4.8,1.1c-0.5,1.9-0.1,3.2,0.3,5.1
			c0.5,2.6,0.5,5.3,2.1,7.6c1.3,1.9,3.4,6.2,6,3.6c2.1-2.1,1.3-4.6,1.8-7.1C312.5,356.6,312.9,355.8,312.8,355.1z"/>
	</g>
	<g>
		<path fill="#FCDD92" d="M333.1,356.7c-2.8-7.5-11.3-8.9-16.6-3.5c-2,2-8,8-8.5,10.6c-0.8,4.3,6.7,9.4,8.5,13.1
			c3.8,8,0.8,20.3,14.3,19.9c6.1-0.2,6.9-4.6,8.5-9.6c1.4-4.5,4.3-12.6,3.1-17.3C340.7,363.2,331.5,364.2,333.1,356.7z"/>
		<path fill="#77361A" d="M329.4,376.6c-1-2.7-3.6-5.2-6.3-6.2c-2.1-0.8-3.9-0.7-4.1,1.7c-0.2,1.7,0.4,2.9,1,4.5
			c0.8,2.3,1.2,4.6,3,6.4c1.4,1.5,3.9,5,5.9,2.3c1.6-2.2,0.5-4.3,0.5-6.6C329.4,378,329.6,377.2,329.4,376.6z"/>
	</g>
	<g>
		<path fill="#FCDD92" d="M338.2,372.9c-2.2-5.8-8.8-6.9-12.9-2.7c-1.5,1.6-6.2,6.2-6.6,8.2c-0.6,3.4,5.2,7.3,6.6,10.2
			c3,6.2,0.6,15.7,11.1,15.4c4.7-0.1,5.4-3.5,6.6-7.5c1.1-3.5,3.3-9.8,2.4-13.4C344.2,377.9,337.1,378.7,338.2,372.9z"/>
		<path fill="#77361A" d="M337.9,386.1c-0.8-2.3-3.1-4.4-5.4-5.3c-1.8-0.7-3.3-0.6-3.5,1.5c-0.2,1.5,0.4,2.4,0.9,3.8
			c0.7,2,1.1,4,2.6,5.5c1.2,1.3,3.4,4.3,5,2c1.3-1.9,0.4-3.7,0.5-5.7C337.9,387.3,338.1,386.6,337.9,386.1z"/>
	</g>
	<g>
		<polygon fill="#F20301" points="228.1,801.7 200.9,801.7 162.8,471.7 200.9,471.7 		"/>
		<polygon fill="#ECEDE7" points="255.3,801.7 228.1,801.7 200.9,471.7 239,471.7 		"/>
		<polygon fill="#F20301" points="282.5,801.7 255.3,801.7 239,471.7 277.1,471.7 		"/>
		<polygon fill="#ECEDE7" points="309.7,801.7 282.5,801.7 277.1,471.7 315.1,471.7 		"/>
		<polygon fill="#F20301" points="336.9,801.7 309.7,801.7 315.1,471.7 353.2,471.7 		"/>
		<polygon fill="#ECEDE7" points="364.1,801.7 336.9,801.7 353.2,471.7 391.3,471.7 		"/>
		<polygon fill="#F20301" points="391.3,801.7 364.1,801.7 391.3,471.7 429.4,471.7 		"/>
	</g>
	<path fill="#ECEDE7" d="M436.7,471.7H158.5c-3.3,0-6-2.7-6-6v0c0-3.3,2.7-6,6-6h278.2c3.3,0,6,2.7,6,6v0
		C442.7,469,440,471.7,436.7,471.7z"/>
	<path fill="#77361A" d="M290,426.3c-2.5,9.2,15.9,2.7,8.2-4.2c-3.3-3-11.8,0.9-9.1,5.1"/>
	<path fill="#77361A" d="M217.2,433.9c-0.8,2.7-0.9,7.7,2.9,7.6c1.1-2.1,2-4.4,0.7-6.5c-1.2-2-3.5-2.9-4.9-1.1"/>
	<path fill="#77361A" d="M235,419.9c1.1,2.7-0.7,4.9,2.1,5.9c1.7,0.6,4.1-0.3,5-1.7c2.4-3.8-2.7-7.5-6.2-6.7
		c0.1,0.8-0.5,1.4-0.5,2.1l-0.4,1.3"/>
	<path fill="#77361A" d="M350.5,382.3c2.2,1.4,13.1,4.5,8.1-1.1c-2.5-2.8-10.2-1-7.1,1.9c-0.3,0.5-0.8,0.8-1.4,0.9"/>
	<path fill="#77361A" d="M273.5,410.6c-2.7,1.4-11.2,2.7-9.8,7.7c0.9,2.9,5.3,3.2,7.5,3.2c4.4,0,13.7-2.1,8.5-7.8
		c-1.5-1.6-4.8-2.2-6.7-3.1"/>
	<path fill="#77361A" d="M372,443.2c-2.1,1-12.1,3.7-5.8,6.7c3,1.4,5.2-2.6,8-1.1c2.8-2.1,0.5-4.8-1.3-6.5c-0.2,0.7-1.1,1-1.3,1.3"
		/>
	<path fill="#77361A" d="M254,367.6c-1.3-0.9-13.9,0.7-14.7,4.1c-0.8,3.5,5.6,2.8,7.6,3c2.3,0.1,7.5,1.4,8.4-1.7
		C255.9,371.3,254.1,368.4,254,367.6z"/>
	<polygon opacity="0.12" points="162.8,471.7 429.4,471.7 428,483.3 165.5,483.3 	"/>
</g>
<g>
	<path fill="#F20301" d="M815.7,583.7l-23.4-4l23-135c0.8-4.5,4.1-8.2,8.5-9.4l88.5-24.7l6.4,22.8l-81.2,22.7L815.7,583.7z"/>
	<path fill="#ECEDE7" d="M796.3,577l22.4-131.7c0.5-3.2,2.9-5.8,9.1-7.5l85.4-23.8l4.5,16.2l-83.4,23.1l-21.5,126.4L796.3,577z"/>
	<path fill="#F20301" d="M800.3,574.2l21.8-128.3c0.3-1.9,1.7-3.5,3.6-4l88.2-24.9l2.7,9.6l-85.2,24l-21.3,125.2L800.3,574.2z"/>
	<path fill="#ECEDE7" d="M804.2,571.4l21.3-124.9c0.1-0.6,0.6-1.1,1.1-1.3l88.4-25.1l0.8,3L828.4,448l-21.1,123.9L804.2,571.4z"/>
	<polygon fill="#F20301" points="871.9,801.7 739.4,801.7 710.8,559 900.6,559 	"/>
	<path fill="#ECEDE7" d="M904.8,559H706.5c-2.8,0-5-2.3-5-5l0,0c0-2.8,2.3-5,5-5h198.3c2.8,0,5,2.3,5,5l0,0
		C909.8,556.7,907.5,559,904.8,559z"/>
	<polygon fill="#E6E7E8" points="875.4,538.5 735.9,538.5 711.1,551.2 900.2,551.2 	"/>
	<circle fill="#FCDD92" cx="805.7" cy="667.3" r="61.5"/>
	<polygon fill="#F20301" points="805.7,585.8 824.6,644.1 885.9,644.1 836.3,680.2 855.3,738.5 805.7,702.5 756.1,738.5 775,680.2 
		725.4,644.1 786.7,644.1 	"/>
	<polygon opacity="0.12" points="710.8,559 900.6,559 899.4,568.9 711.9,568.9 	"/>
</g>
<g>
	<g>
		<path fill="#D10202" d="M1521.9,781.4c-9.3,0.1-16.9,7.7-16.8,17.1l-225.1,2c-0.1-9.3-7.7-16.9-17.1-16.8l-0.7-80.2
			c9.3-0.1,16.9-7.7,16.8-17.1l225.1-2c0.1,9.3,7.7,16.9,17.1,16.8"/>
		<g>
			<polygon fill="#FCDD92" points="1310.5,730 1313.9,740 1324.4,739.9 1315.9,746.2 1319.3,756.2 1310.7,750.1 1302.3,756.3 
				1305.4,746.3 1296.9,740.2 1307.4,740.1 			"/>
			<polygon fill="#FCDD92" points="1351.3,729.7 1354.6,739.7 1365.1,739.6 1356.7,745.8 1360,755.8 1351.4,749.7 1343,756 
				1346.1,745.9 1337.6,739.8 1348.1,739.7 			"/>
			<polygon fill="#FCDD92" points="1392,729.3 1395.3,739.3 1405.8,739.2 1397.4,745.5 1400.7,755.4 1392.1,749.3 1383.7,755.6 
				1386.8,745.5 1378.3,739.4 1388.8,739.3 			"/>
			<polygon fill="#FCDD92" points="1432.7,728.9 1436,738.9 1446.5,738.8 1438.1,745.1 1441.4,755.1 1432.9,749 1424.4,755.2 
				1427.6,745.2 1419,739.1 1429.5,739 			"/>
			<polygon fill="#FCDD92" points="1473.4,728.6 1476.7,738.5 1487.2,738.5 1478.8,744.7 1482.1,754.7 1473.6,748.6 1465.1,754.8 
				1468.3,744.8 1459.7,738.7 1470.2,738.6 			"/>
		</g>
	</g>
	<g>
		<path fill="#F20301" d="M1403.3,571.5c-4.4,8.3-1.2,18.5,7.1,22.9l-105.2,199c-8.3-4.4-18.5-1.2-22.9,7.1l-71-37.5
			c4.4-8.3,1.2-18.5-7.1-22.9l105.2-199c8.3,4.4,18.5,1.2,22.9-7.1"/>
		<g>
			<polygon fill="#FCDD92" points="1257.8,733.1 1268.1,734.9 1273,725.6 1274.5,736 1284.9,737.8 1275.4,742.5 1276.9,752.9 
				1269.6,745.3 1260.2,750 1265.1,740.7 			"/>
			<polygon fill="#FCDD92" points="1276.8,697.1 1287.1,698.9 1292.1,689.6 1293.5,700 1303.9,701.8 1294.5,706.5 1296,716.9 
				1288.6,709.4 1279.2,714 1284.1,704.7 			"/>
			<polygon fill="#FCDD92" points="1295.8,661.1 1306.2,662.9 1311.1,653.6 1312.6,664.1 1322.9,665.9 1313.5,670.5 1315,680.9 
				1307.7,673.4 1298.2,678 1303.1,668.7 			"/>
			<polygon fill="#FCDD92" points="1314.8,625.1 1325.2,626.9 1330.1,617.6 1331.6,628.1 1342,629.9 1332.5,634.5 1334,644.9 
				1326.7,637.4 1317.2,642 1322.1,632.7 			"/>
			<polygon fill="#FCDD92" points="1333.8,589.2 1344.2,591 1349.1,581.7 1350.6,592.1 1361,593.9 1351.5,598.5 1353,608.9 
				1345.7,601.4 1336.2,606 1341.2,596.7 			"/>
		</g>
	</g>
</g>
<g>
	<rect x="1796.4" y="559.4" fill="#F20301" width="295.2" height="232"/>
	<rect x="1826.8" y="640.7" fill="#FCDD92" width="234.3" height="8.4"/>
	<rect x="1826.8" y="688.4" fill="#FCDD92" width="234.3" height="8.4"/>
	<rect x="1826.8" y="736.1" fill="#FCDD92" width="234.3" height="8.4"/>
	
		<rect x="1785.3" y="487.6" transform="matrix(0.9536 -0.301 0.301 0.9536 -61.3546 604.9671)" fill="#F20301" width="295.2" height="28"/>
	<g>
		<path fill="#FCDD92" d="M1787.9,532.7l28.5,20.4l24.3-7.7l-28.5-20.4L1787.9,532.7z M1882.8,502.8l28.5,20.4l24.3-7.7l-28.5-20.4
			L1882.8,502.8z M1835.4,517.7l28.5,20.4l24.3-7.7l-28.5-20.4L1835.4,517.7z M2049.3,450.2l-24.3,7.7l28.5,20.4l24.3-7.7
			L2049.3,450.2z M1930.2,487.8l28.5,20.4l24.3-7.7l-28.5-20.4L1930.2,487.8z M1977.6,472.8l28.5,20.4l24.3-7.7l-28.5-20.4
			L1977.6,472.8z"/>
	</g>
	<g>
		<path fill="#FCDD92" d="M1895.8,587.4h25.5l21.1-28h-25.5L1895.8,587.4z M1846.1,587.4h25.5l21.1-28h-25.5L1846.1,587.4z
			 M1796.4,587.4h25.5l21.1-28h-25.5L1796.4,587.4z M1945.5,587.4h25.5l21.1-28h-25.5L1945.5,587.4z M2066.1,559.4l-21.1,28h25.5
			l21.1-28H2066.1z M1995.3,587.4h25.5l21.1-28h-25.5L1995.3,587.4z"/>
	</g>
	<polygon fill="#F20301" points="1796.4,587.4 1817.5,559.4 1816.5,553.1 1787.9,532.7 1796.4,559.4 	"/>
</g>
<g>
	<g>
		<path fill="#FCDD92" d="M1488.9,1268.1c-28.1-5.6-50.3-27-63.4-57c-23.5,22.5-42,56.2-50,96c-16,79.8,16.5,153.7,72.6,164.9
			c56.1,11.2,114.5-44.4,130.5-124.2c8-39.8,3.9-78.1-9.1-107.9C1545.8,1262.6,1517.1,1273.8,1488.9,1268.1z"/>
		<path fill="#F20301" d="M1459.6,1414.6c17.2,3.5,31.4,14.6,40.6,30.2c-6.9-20.6-20.7-35.7-38.8-39.3c-18.1-3.6-36.6,5-50.9,21.3
			C1425,1416,1442.3,1411.2,1459.6,1414.6z"/>
		<path fill="#F20301" d="M1519.2,1349.8c-12.8-2.6-23.3-10.9-30.2-22.4c5.1,15.3,15.4,26.5,28.8,29.2c13.4,2.7,27.2-3.7,37.9-15.8
			C1544.9,1348.7,1532,1352.4,1519.2,1349.8z"/>
		<path fill="#F20301" d="M1429.5,1331.8c-12.8-2.6-23.3-10.9-30.2-22.4c5.1,15.3,15.4,26.5,28.8,29.2c13.4,2.7,27.2-3.7,37.9-15.8
			C1455.2,1330.8,1442.3,1334.4,1429.5,1331.8z"/>
	</g>
	<g>
		<path fill="#F20301" d="M1299.6,1235.6c-28,6.1-56.9-4.6-81-26.8c-12.5,30-16,68.4-7.4,108c17.3,79.6,76.7,134.2,132.6,122
			c55.9-12.2,87.2-86.5,69.9-166.1c-8.6-39.7-27.7-73.1-51.6-95.2C1349.5,1207.8,1327.6,1229.5,1299.6,1235.6z"/>
		<path fill="#FCDD92" d="M1334.6,1396.4c-25.4,5.5-51.1-1.2-72.8-16.8c21.5,23.8,49.1,36,75.7,30.2s46.6-28.3,56.3-59
			C1380.5,1374.1,1360,1390.9,1334.6,1396.4z"/>
		<path fill="#FCDD92" d="M1268.7,1308.9c12.8-2.8,25.7,0.6,36.6,8.4c-10.8-12-24.7-18.1-38.1-15.2c-13.4,2.9-23.5,14.3-28.3,29.7
			C1245.6,1320.1,1256,1311.7,1268.7,1308.9z"/>
		<path fill="#FCDD92" d="M1358.1,1289.4c12.8-2.8,25.7,0.6,36.6,8.4c-10.8-12-24.7-18.1-38.1-15.2c-13.4,2.9-23.5,14.3-28.3,29.7
			C1335,1300.7,1345.4,1292.2,1358.1,1289.4z"/>
	</g>
</g>
<g>
	<path fill="#FCDD92" d="M614.9,1284.7v102.7h175.5v-6.8c0-14.2,11.5-25.7,25.7-25.7h0c14.2,0,25.7,11.5,25.7,25.7v6.8h175.5v-102.7
		H789.9H614.9z"/>
	<rect x="627.7" y="1292.2" fill="#001376" width="149.9" height="87.7"/>
	<rect x="854.6" y="1292.2" fill="#F20301" width="149.9" height="87.7"/>
</g>
<g>
	<rect x="169" y="1161.5" fill="#F20301" width="221.5" height="107.9"/>
	<path fill="#F20301" d="M192.5,1458.7L192.5,1458.7c-2.1-4.2-0.4-9.4,3.8-11.5L399.8,1346c4.2-2.1,9.4-0.4,11.5,3.8l0,0
		c2.1,4.2,0.4,9.4-3.8,11.5L204,1462.5C199.8,1464.6,194.6,1462.9,192.5,1458.7z"/>
	<path fill="#F20301" d="M367,1458.7L367,1458.7c2.1-4.2,0.4-9.4-3.8-11.5L159.8,1346c-4.2-2.1-9.4-0.4-11.5,3.8h0
		c-2.1,4.2-0.4,9.4,3.8,11.5l203.4,101.2C359.8,1464.6,364.9,1462.9,367,1458.7z"/>
	<rect x="169" y="1239.7" fill="#F20301" width="11.5" height="73.6"/>
	<rect x="379" y="1239.7" fill="#F20301" width="11.5" height="73.6"/>
	<path fill="#F20301" d="M161.8,1340.7h-6.3v-80.3c0-5.3,1.8-10.6,5.1-14.8l27.8-35.1l5,3.9l-27.8,35.1c-2.4,3.1-3.8,6.9-3.8,10.9
		V1340.7z"/>
	<path fill="#F20301" d="M404,1340.7h-6.3v-80.3c0-3.9-1.3-7.8-3.8-10.9l-27.8-35.1l5-3.9l27.8,35.1c3.3,4.2,5.1,9.4,5.1,14.8
		V1340.7z"/>
	<path fill="#F20301" d="M400.8,1364.2h-242c-8.1,0-13.8-8.1-10.9-15.7l18.3-48.2c1.7-4.5,6-7.5,10.9-7.5h205.5
		c4.8,0,9.1,3,10.9,7.5l18.3,48.2C414.6,1356.1,408.9,1364.2,400.8,1364.2z"/>
</g>
<g>
	<circle fill="#F20301" cx="2013.2" cy="1162.1" r="40.1"/>
	<rect x="1885.1" y="1197.4" fill="#F20301" width="176" height="93.8"/>
	<circle fill="#F20301" cx="1933.1" cy="1162.1" r="40.1"/>
	<circle fill="#FCDD92" cx="1933.1" cy="1162.1" r="18.3"/>
	<circle fill="#FCDD92" cx="2013.2" cy="1162.1" r="18.3"/>
	<polygon fill="#F20301" points="2092.4,1276.7 2042.1,1244.4 2092.4,1212 	"/>
	<rect x="1869.6" y="1214.7" fill="#F20301" width="25.2" height="20.8"/>
	<rect x="1923.9" y="1291.3" fill="#F20301" width="97.8" height="13.7"/>
	<path fill="#F20301" d="M1913.9,1488.4L1913.9,1488.4c-3.5-0.8-5.8-4.4-4.9-8l46.6-198.6c0.8-3.5,4.4-5.8,8-4.9l0,0
		c3.5,0.8,5.8,4.4,4.9,8l-46.6,198.6C1921,1487,1917.4,1489.2,1913.9,1488.4z"/>
	<path fill="#F20301" d="M2031.7,1488.4L2031.7,1488.4c3.5-0.8,5.8-4.4,4.9-8l-46.6-198.6c-0.8-3.5-4.4-5.8-8-4.9l0,0
		c-3.5,0.8-5.8,4.4-4.9,8l46.6,198.6C2024.6,1487,2028.2,1489.2,2031.7,1488.4z"/>
	<rect x="2008.7" y="1208.2" fill="#FCDD92" width="45.7" height="13"/>
</g>
</svg>
